<?xml version="1.0" encoding="UTF-8"?>
<svg id="_レイヤー_2" data-name="レイヤー 2" xmlns="http://www.w3.org/2000/svg" viewBox="0 0 276.29 72.7">
  <defs>
    <style>
      .cls-1 {
        fill: #f5f5f5;
      }

      .cls-1, .cls-2 {
        stroke-width: 0px;
      }

      .cls-2 {
        fill: red;
      }
    </style>
  </defs>
  <g id="_レイヤー_2のコピー" data-name=" レイヤー 2のコピー">
    <g>
      <path class="cls-1" d="M82.6,6.96h-.61l.2-.81c-.13-.12-1.87.57-1.83-.61l1.42.2c-.15-.73.27-.59.81-.81v2.03h.01Z"/>
      <path class="cls-1" d="M169.45,4.72l-1.22.41-.2-.61c.13.69-.4.61-.61,1.01l1.22.61.1-.83h-.01l.72-.59Z"/>
      <g>
        <path class="cls-1" d="M31.93,46.76v-15h14.49v-8.27h-14.49v-13.93h15.88V1.37h-21.06v53.58h21.56v-8.19s-16.38,0-16.38,0ZM37.4,6.52c.14-.09.08-.48.6-.73,1-.49.94.37,1.67.15v1.02l-1.5-.19-.33.8-.2-.61-.33.41-1.09-.21c.1-1.01,1.04-.54,1.18-.64ZM29.1,4.11h-1.22c.64-.58-.05-1.33.09-1.63.19-.4.94-.37,1.33-.4.39.76-.53,1.28-.2,2.03Z"/>
        <path class="cls-1" d="M78.73,25.26l.19-1.21c-.31.03-.89-.38-1.12-.02-.47.76.31.87.32.95.08.47-.65,1.6.5,1.7.25.02.71-.19,1.01-.21v-1.23c-.33-.04-.67-.06-.92.02h.02Z"/>
        <path class="cls-1" d="M79.55,21.19s.07.03.1.04v-.98c-.1.16-.15.43-.1.94Z"/>
        <path class="cls-1" d="M79.65,17.77v-1.75c-.16-.11-.31-.19-.32-.25-.09-.43.5-.94-.09-1.28l-.84.91c.81.86-.25.54-.07,1.22.02.07.75.26.41,1.12.42-.13.7-.07.92.03h-.01Z"/>
        <path class="cls-1" d="M75.21,13.02c.53.05,1.26-.81,1.09-1.39h-1.62c-.06-.74,1.05-.47,1.02-1.22l.23.38.47-.14.3.26c-.53.63.24,1.49-.26,2.08-.27.31-2.18,1.08-.15.67v.91l.59.12.02.8.81-.41-.4,1.22c1.51-.78.41-1.79.81-3.05l.51.62c.34.09.69,0,1.01-.11v-1.24c-.07,0-.15,0-.24-.03-.86-.26-.84-.72-1.08-1.47.77.05,1.21-.56,1.02-1.29-.04-.15-.37-.11-.4-.26-.17-.81.18-1.13.7-1.19V1.37h-5.18v11.24c.26.13.53.39.74.41h.01ZM78.32,8.38l-.81.53.12,1.11c-.56.38-1.05.5-1.34-.21l.61-.41-.6.07-.61-1.49.71.2.1-.6h.61l-.21.4c.23.15,1.59-.5,1.42.4ZM76.91,3.91l.61.41.31-1.02c.02.38.38,1.17.29,1.5-.07.23-.46.27-.53.39-.15.27-.39,1.28-.48,1.36-.26.25-.55-.07-.2-.4l-.92-.41-.51.41c.43-.9,1.43-.94,1.43-2.23h0Z"/>
        <path class="cls-1" d="M78.53,26.89l.2,1.02.31-.17.1.37h-1.02l.2-1.01h-.61c.1.66-.23,1.04-.72,1.42-.5.2-.3-1.21-.4-1.43l1.32-.6-.73-.2c-.16-.21.33-.79-.19-1.03l-1.11.41c-.44-.98.11-1.36.42-2.12.27-.65.49-1.53.92-2.13.24-.34,2.03-1.57,1.71-1.84-.72-.63-1.47,1.81-2.65.91-.38-.29.08-.76,0-1.12l-.81.41v-.61l-.61.21.61-1.22c-.07-.07-.61.19-1.01.22v36.59h5.18v-28.06h-1.12v-.02Z"/>
        <path class="cls-1" d="M76.9,16.72l-.59-.02c.16-.75-.52-.76-.43-1.41l-1.41.59v2.2c.91-.22,2.88-.99,2.43-1.37h0Z"/>
        <path class="cls-1" d="M74.47,14.84v.18s0-.12,0-.18Z"/>
        <path class="cls-1" d="M256.88,38.67c.15-.09.18-.23.16-.39l.4.81.27-.12v-11.42l5,11.48c.09,0,.19,0,.27,0,.58-.02,1.32-.57,2.18-.16l.1-.61c1.56,1.53,1.91,2.14,4.27,2.03.03,0,.05,0,.07,0l-6.37-13.98,12.78-24.95h-6.52l-11.79,23.27V1.37h-5.17v38.72c1.66-.31,3.17-.75,4.34-1.42h.01Z"/>
        <path class="cls-1" d="M263.45,40.75l5.8,13.33c.2-.96,1.73-.61,2.41-1.08l1.03.53-.1.4h-1.19l-.33-.41c-.08.93-1.09.56-1.79.61l.35.81h6.66l-6.46-14.16c-2.01-.19-4.29-.06-6.38-.03Z"/>
        <path class="cls-1" d="M257.71,40.29c-1.82-.22-3.66-.36-4.66,0-.19.07-.36.23-.51.36v14.3h5.17v-14.66Z"/>
        <path class="cls-1" d="M23.6,13.32c-1.25-3.98-3.01-6.97-5.31-8.96-2.3-1.99-5.02-2.99-8.17-2.99H0v39.79s.07-.03.12-.04l.11.6c.99.18,1.21-.35,1.77-.55.71-.26,1.44-.13,1.98-.81.35.12.77.29,1.21.43V9.57h4.54c3.24,0,5.76,1.59,7.58,4.75,1.81,3.16,2.72,7.82,2.72,13.85s-.91,10.63-2.72,13.82-4.34,4.78-7.58,4.78h-4.54v-4.89c-.33-.13-.71-.24-1.16-.11-.88.26-.55,1.39-.86,1.38l-.52-.33.21-.68c-.82-.1-2.54.04-2.04,1.21l-.82.17v11.45h10.12c3.15,0,5.88-1,8.17-3.02,2.3-2.02,4.06-5.02,5.31-9s1.87-8.85,1.87-14.77-.63-10.87-1.87-14.85h0Z"/>
        <path class="cls-1" d="M128.61,1.37v38.04L113.76,1.37h-5.18v20.36c.39.02.74.08.66.48-.2.05-.43.06-.66.03v32.71h5.18V15.83l15.12,39.12h4.99V1.37h-5.26Z"/>
        <path class="cls-1" d="M222.91,42.44l-1.28.11v-.81c.37.18.74-.04,1.09-.11l-.2-.88c-.7.36-3.22.04-3.54-.03v-.6c1.19-.33,2.28.12,3.44.19l-3.28-14.63h-.44l-.13-.4-.41.31c-.06.29.87.85.1,1.31l-1.12-.91.61-.1.1-1.23h.51c.17-.63-.53-.29-.81-.71l.81-.41-.2-.7.35.09-4.83-21.53h-4.59l-12.01,53.58h5.75l2.43-11.79h12.11l2.43,11.79h5.9l-2.81-12.52.02-.02ZM216.96,22.61l-1.02.21c-.09.12.6,1.24-.2,1.42l-.16-.57.36-.14-.68-.49-.12-.42c.75-.53,1.02-.97,1.82-.01h0ZM208.98,17.77c.27.18.17,1.6.15,1.99-.02.26.16.5-.31.61.29-1.53-.73-1.62-1.42-2.54.36-.53,1.06-.02,1.59-.07h0ZM209.98,20.84c-.1-.9-.24-1.75.51-2.44l.91-4.32.71,3.45h.76c-.28.69-.42.85-.3,1.62l-.31-1.22-.06.04,3.51,17h-8.73l2.98-14.14h.02ZM214.51,41.53l-5.69-1.63c-.05-.31.37-.24.59-.27.49-.07,1.12-.02,1.64-.13v.6c.43.12.95-.25,1.3-.21.15.02.13.35.27.42.16.08,2.34.81,1.89,1.22ZM215.54,41.82c-.31-.14-.51.04-.41-.49l3.05.61c.02,1.14-2,.16-2.64-.12Z"/>
        <path class="cls-1" d="M62.78,23.59c-2.04-.82-3.55-1.66-4.52-2.53s-1.6-1.77-1.89-2.72c-.29-.95-.43-1.93-.43-2.95,0-2.3.48-4.02,1.46-5.17.35-.41.75-.73,1.18-.99,0-.07,0-.15.02-.24l-1.42.2c.23-.54-.33-1.35.41-1.62v.61l1.33-.04.7-.37c.14.69-.59.14-.41.81l.47.16c.48-.14.98-.24,1.53-.24,1.32,0,2.45.37,3.38,1.11s1.74,1.68,2.43,2.83c.69,1.15,1.29,2.33,1.8,3.56l2.86-3.74c-.24-.69-.07-.98.15-1.84l-.81.41-.11-.61c.46-.2.6-.25.51-.81l-.82-.11.41-2.13.32.05c-.82-1.46-1.77-2.82-2.89-4.03C66.49,1.07,64.09,0,61.24,0c-2.16,0-4.05.66-5.65,1.99-1.61,1.33-2.86,3.18-3.74,5.55-.89,2.37-1.33,5.12-1.33,8.23,0,3.93.69,7.17,2.09,9.72,1.4,2.56,3.55,4.42,6.46,5.59,2.46.92,4.28,1.83,5.47,2.72,1.18.89,1.96,1.85,2.34,2.87.37,1.02.56,2.24.56,3.67,0,2.25-.43,4.02-1.28,5.32s-2.33,1.95-4.43,1.95-3.79-.72-5.08-2.18-2.38-3.46-3.28-6.01l-4.37,4.21c1.32,4.49,3.08,7.69,5.29,9.57,2.21,1.88,4.63,2.83,7.27,2.83h0c3.42,0,6.17-1.35,8.26-4.08,2.09-2.73,3.13-6.65,3.13-11.75,0-4.18-.79-7.65-2.38-10.41-1.6-2.75-4.19-4.82-7.79-6.2h0ZM54.73,10.41l-.2-.4c-1.03,0-.51-1.05-1.22.26-.13.24-.14.17-.41.14.33-.82-.64-1.25-.61-1.32.24-.72.85.4,1.01.3-.02-.74.93-.4,1.43-.61.13.36-.34.5-.34.71,0,.17.5.54.34.92Z"/>
        <path class="cls-1" d="M172.16,1.37h-5.27v5.25c.5.2.28.87,0,1.4v14.64h-14.31v-9.15c-.19.02-.39.02-.62-.04.08-.31.35-.35.62-.4V1.37h-5.18v53.58h5.18v-24.11h14.31v19.07l5.27-17.63V1.37ZM168.64,6.14l-1.22-.61c.21-.4.74-.32.61-1.01l.2.61,1.22-.41-.72.59h.01l-.1.83Z"/>
        <path class="cls-1" d="M75.9,40.5c.07.09.47-.14.39.21h-1.02c.42-.58.28-.58.17-1.07-.29-1.34.74-.36.78-.05.03.27-.39.84-.33.91h.01Z"/>
        <path class="cls-1" d="M96.41,33.61h5.17v11.48c-.72.72-1.55,1.31-2.5,1.8-.94.49-2.12.73-3.53.73-1.89,0-3.52-.82-4.88-2.45s-2.42-3.92-3.17-6.85c-.24-.95-.43-1.97-.59-3.02-1.03.55-1.45-.84-2.18-.82-.22,0-.36.48-.71.33l.41-1.62c-.11-.11-1.76.55-1.42-.1.7-.47.5-.83,1.43-.59l.2-.73.31.42c.76-.2,1.27-.31,1.11-1.23h-.81l.81-1.12c.12-.48-.71-.56-1.02-.51l.21-1.01c.56-.1.27.38.84.48.12.02.22.03.31.02,0-.22-.02-.42-.02-.64,0-2.65.19-5.07.54-7.28-.18-.36-.38-.57.15-1.25h.07c.11-.56.23-1.14.36-1.69.75-2.93,1.8-5.22,3.17-6.85,1.36-1.63,2.99-2.45,4.88-2.45,1.62,0,3.14.54,4.57,1.61s2.59,2.45,3.49,4.13l3.29-6.89c-1.29-2.2-2.92-4-4.88-5.4-1.97-1.41-4.12-2.11-6.46-2.11-2.85,0-5.37,1.16-7.58,3.48-2.21,2.32-3.94,5.59-5.18,9.8-1.25,4.21-1.87,9.23-1.87,14.89s.62,10.6,1.87,14.81,2.97,7.46,5.18,9.76c2.2,2.29,4.73,3.44,7.58,3.44v.02c2.21,0,4.3-.48,6.27-1.42,1.97-.95,3.64-2.24,5.02-3.87v-25.57h-10.44s0,8.27,0,8.27ZM85.04,24.24h-.6v-1.63l.2.61.81-.41-.41,1.42h0ZM83.41,14.89l2.44,1.02c-.05,1.17-1.51.04-2.01-.36-.25-.2-.53-.27-.43-.66ZM82.19,17.73l1.02-.2-.2-1.01h.61l-.2,1.01h.81l-.2.81.81.31c-.77.17-.4,1.34-1.22.79v-1.7h-1.43Z"/>
        <path class="cls-1" d="M243.43,45.7c-1.28,1.27-2.74,1.91-4.39,1.91-1.87,0-3.5-.8-4.91-2.41s-2.5-3.87-3.26-6.81c-.77-2.93-1.15-6.29-1.15-10.22s.37-7.22,1.11-10.12c-.03-.17-.05-.34-.04-.51l.11.23c.76-2.88,1.84-5.11,3.23-6.7,1.41-1.61,3.05-2.41,4.91-2.41.66,0,1.28.11,1.87.31.1-.05.21-.11.35-.16.26-.1.29.15.35.46.21.1.41.21.6.34.29-.61.85-.84,1.49-1.21l.1,1.01c.35-.68.52-1.24.41-2.03.96.28,1.03,1.59,2.24,1.22l-.61-1.11c.2-.4.61-.07.81-.2.34-.22.38-1.1.95-1.3.58-.2.42.26.69.47.17.13.52.09.57.14.2.21-.06,1.16-.38.9l-.2-.72-1.22.21v.81l2.44.2-.08-.66c-.95-1.71-2.04-3.16-3.27-4.32-2.1-1.99-4.47-2.99-7.11-2.99-2.85,0-5.4,1.16-7.63,3.48-2.23,2.32-3.98,5.59-5.24,9.8-1.26,4.21-1.89,9.23-1.89,14.89s.63,10.6,1.89,14.81,3,7.46,5.24,9.76c2.24,2.29,4.78,3.44,7.63,3.44h0c2.64,0,5.01-.99,7.11-2.98,2.09-1.99,3.79-4.75,5.08-8.27l-4.63-4.59c-.84,2.3-1.9,4.09-3.17,5.36v-.03Z"/>
        <path class="cls-1" d="M191.93,1.37h-.02v36.59c0,3.32-.4,5.74-1.21,7.27-.81,1.53-2.02,2.3-3.64,2.3s-2.85-.77-3.69-2.3c-.84-1.53-1.26-3.95-1.26-7.27h-3.14l-1.7,5.66c.17,1.38.39,2.7.68,3.91.13.52.27,1.01.43,1.48.52-.23,2.42.14,2.93.04.09.74-.24.24-.56.25-.86,0,0,.59-.15.77l-.72.2,1.02.61-.56.91c.25.87.61.72,1.27.32.48.3.21.86.34,1.28.17.58.74.09,1.24.17.26.04,2.31.82,2.19.98-.55-.07-.41.36-.4.82l1.02-.4-.23.78-.99.03-.09-1.03c-.71-.5-1.11-.15-1.13.62.39,0,.71-.15.61.38.88.29,1.84.44,2.9.45,2.4,0,4.35-.76,5.83-2.26s2.57-3.63,3.26-6.39c.69-2.76,1.04-5.95,1.04-9.57V1.37h-5.27ZM184.15,50.27h.01l-.21-.61,1.02.81c-.68-.12-.73.22-.82.82-.27.22-1.59-1.05,0-1.02ZM186.39,53.42c-.62.82-1.55.63-2.31.08-.53-.39-.02-.62-1.14-.48l.91-.91c.24,0,.45,1.6,1.28,1.16.12-.06-.12-.57.86-.25.26.09.49.04.4.4Z"/>
        <polygon class="cls-1" points="183.8 1.37 167.78 54.98 171.41 54.98 187.46 1.37 183.8 1.37"/>
      </g>
      <path class="cls-2" d="M23.91,61.8c-.36.15-.75.15-1.11,0-.9-.21-1.68-.57-2.43-1.02-.39-.18-.72-.51-.96-.9-.27-.45-.48-.9-.54-1.41-.06-.27,0-.51.12-.72l.42-.45c.15-.21.33-.27.54-.21.42.03.81.12,1.08.21,1.65-.24,3.21-.54,4.65-.96,3.09-.84,6.27-1.32,9.6-1.38l3.69-.09c.45,0,.9-.12,1.29-.39l1.8,1.14c.66.48,1.11,1.14,1.38,1.95-.03.27-.21.54-.48.72-.21.18-.45.27-.75.27-1.41-.03-2.85-.21-4.35-.48-1.23-.21-2.46-.15-3.69.15l-1.77.54c.84.57,1.53,1.41,2.04,2.55.09.27.15.54.12.84-.39,1.62-.9,3.27-1.62,4.86-1.26,2.55-3.12,4.44-5.61,5.61l-.6-.18-.24-.96c-.06-.21,0-.39.15-.54.99-1.35,1.68-2.79,2.19-4.32l1.2-4.02c.12-.48.21-.96.21-1.53,0-.18-.06-.33-.12-.45l-.66-.9c-1.59.51-3.42,1.17-5.55,2.07ZM25.32,49.05c-.39-.3-.63-.69-.69-1.11-.03-.21.03-.42.21-.6.15-.18.33-.27.54-.27.21-.06.42-.03.57.06,1.14.36,2.25.48,3.39.36l3.36-.3c.33-.03.69.03,1.02.21,1.02.72,1.98,1.68,2.88,2.85l-.3.48c-.09.27-.3.42-.63.45-1.8.27-3.3.45-4.56.57-1.35.54-2.73,1.02-4.17,1.38-.3.03-.69-.54-1.26-1.74.78.75,1.17,1.2,1.17,1.35-.45.03-.66-.03-.66-.15.39-.36.75-.66,1.08-.87.36-.27.66-.48.84-.66-.96-.48-1.89-1.17-2.79-2.01ZM38.37,50.13c.18,0,.36-.03.51-.12l1.14-.75c.24-.21.63-.36,1.11-.39s.96.09,1.44.33c.84.51,1.41,1.29,1.74,2.28.12.33.03.54-.24.63l-.27.18c-.12.03-.3.06-.57.06-1.14-.39-2.1-.99-2.91-1.89-.03-.03-.09-.06-.18-.03-.06.03-.12.06-.12.12-.09.24-.12.42-.12.57.39.39.69.81.9,1.29.24,0,.06.48-.57,1.44,0-.96.54-1.47,1.56-1.47l-1.8,1.14c-.27.21-.54.21-.84,0-.9-.54-1.65-1.23-2.28-2.07-.21-.27-.27-.57-.18-.9,0-.12.06-.24.18-.36.12-.06.24-.09.33-.09.33-.06.72-.06,1.17.03Z"/>
      <path class="cls-2" d="M51.84,56.19c-.24-2.34-.75-4.8-1.59-7.38.6-.09,1.08.03,1.5.3,1.74,1.14,3.24,2.64,4.53,4.5.36,0,.54.57.54,1.65l3.51-.63c.06-1.47.03-2.85-.12-4.2l-.75-.78c-.21-.21-.24-.45-.03-.72.54-.63,1.11-1.14,1.74-1.62.3-.24.66-.33,1.08-.24.72.21,1.44.42,2.07.66.6.3,1.11.63,1.59,1.08.15.24.18.48.12.69l-.75,4.56,1.77-.18c.18,0,.33.03.48.06.42.15.78.39,1.08.66.27.33.6.6.96.78.27.15.48.36.69.63.18.21.18.48,0,.75l-.27.54c-.15.27-.42.42-.75.42-1.47-.15-2.94-.21-4.5-.21-.45,2.43-1.08,4.83-1.95,7.17-1.08,3.33-3.12,5.97-6.09,7.95l-.42-.48c-.21-.24-.24-.45-.06-.69,1.92-4.32,3.15-8.76,3.72-13.38-1.17.18-2.22.51-3.12.99v2.1c0,.69-.18,1.29-.51,1.89-.21.45-.6.9-1.11,1.29-.18.18-.45.21-.75.03-.72-.54-1.41-1.23-1.98-1.98-.21-.33-.33-.63-.36-.99l-.03-.48c-.51.21-1.08.39-1.8.48-.54.06-1.05-.03-1.47-.27-1.38-.69-2.49-1.71-3.24-3.03-.18-.3-.18-.57.03-.84.27-.33.54-.63.72-.96.09-.09.21-.12.33-.12.15,0,.3.03.39.09l.9.54,3.9-.63h0ZM68.64,50.88c.3.63.51,1.23.63,1.92.06.33-.03.54-.27.75-.21.15-.45.15-.66,0l-.66-.36c-.09-.06-.15-.15-.24-.27-.24-.81-.54-1.47-.93-2.01-.15-.15-.18-.33-.12-.6.09-.3.21-.54.3-.72.09-.15.21-.21.36-.21.09-.03.21-.03.36,0,.24.15.39.3.48.39.09-.09.27-.21.54-.39.15-.12.21-.3.12-.57.48-.33.99-.51,1.5-.51,1.2.63,2.13,1.47,2.82,2.52.18.33.21.66.12.99-.09.24-.24.54-.48.87l-.75-.12c-.18,0-.33-.09-.42-.3-.63-.87-1.35-1.65-2.22-2.31-.21.27-.36.57-.48.93Z"/>
      <path class="cls-2" d="M77.91,65.1c-.63.33-1.35.54-2.16.63-.39.03-.78-.06-1.11-.24-.54-.45-.93-.96-1.2-1.53-.18-.36-.15-.69.12-.93l.54-.6c.81.12,1.53-.03,2.13-.42,4.47-3.36,8.64-7.17,12.57-11.4.21-.18.3-.42.3-.69,0-.51.09-.93.27-1.35.12-.39.3-.66.6-.84.51-.39,1.08-.63,1.77-.72.51-.03.99.06,1.38.3,1.5.93,2.43,2.28,2.73,4.05.09.42,0,.75-.3,1.08-2.16,1.86-4.35,3.63-6.54,5.37l.24.48c.12.27.21.57.24.87.09,3.72,0,7.38-.33,10.92-.03.39-.18.72-.39,1.02-.24.51-.51.87-.9,1.17-.15.18-.33.27-.57.27s-.39-.06-.54-.21c-.81-.6-1.44-1.32-1.95-2.04-.3-.51-.36-1.05-.18-1.62.33-.75.54-1.56.63-2.34.06-1.92.21-3.93.42-6.12-2.4,1.65-4.98,3.3-7.77,4.89h0Z"/>
      <path class="cls-2" d="M104.32,64.98c4.62-1.44,8.73-3.66,12.33-6.69,1.02-.81,1.95-1.77,2.79-2.85.42-.51,1.05-1.23,1.89-2.19.18-.21.45-.27.78-.18l.48.12c.18,0,.3.09.33.24.39.39.36.57-.12.57-.84,1.44-1.53,2.76-2.07,4.02-.63,1.35-1.38,2.61-2.28,3.84-.9,1.17-1.98,2.22-3.21,3.12-3.03,2.28-6.3,4.23-9.75,5.76-.48.18-.99.18-1.5.03-1.77-.57-3.03-1.68-3.81-3.36-.12-.36-.15-.72-.03-1.14.33-.75.81-1.41,1.35-1.89.12-.09.27-.12.42-.12.18,0,.3.09.39.21l.48.75c.51,0,1.02-.09,1.53-.24ZM103.87,51.3c-.15-.33-.24-.69-.27-1.14,0-.21.09-.39.27-.54l.48-.18c.18-.12.39-.18.66-.12,1.5.03,3.06.27,4.62.78.57.27,1.05.57,1.44.99.36.57.63,1.08.78,1.65.12.39.06.78-.21,1.14-.45.45-.93.78-1.44,1.05-.36.15-.72.18-1.05.12l-1.17-.06c-.24-.03-.45.03-.69.18-1.5.75-2.64,1.2-3.48,1.32-.51.57-.69.96-.51,1.14.15.18-.36.54-1.56,1.11,1.68-2.07,2.97-3.78,3.9-5.07-.69-.66-1.29-1.47-1.77-2.37Z"/>
      <path class="cls-2" d="M174.8,55.09c-.22-.58-.38-1.22-.42-1.89-.03-.42.1-.74.42-.9.32-.22.61-.22.96-.03.96.54,1.86,1.12,2.66,1.86.32.29.58.61.77,1.02.35.61.54,1.18.54,1.86s-.13,1.31-.38,1.89c-.86,1.92-2.14,3.49-3.81,4.77-1.66,1.28-3.46,2.37-5.38,3.26-.38.19-.7.1-.93-.26l-.35-.51c-.13-.32-.19-.64-.16-.93.19-.64.45-1.31.8-1.98.13-.06.26-.13.42-.22l.26.16.38.19c1.89-2.53,3.29-5.31,4.22-8.29ZM192.49,57.39c1.31,1.41,2.4,3.01,3.17,4.8.26.54.32,1.18.22,1.82-.06.48-.22.96-.51,1.34s-.67.58-1.12.58l-.42-.06c-.35-.16-.64-.38-.83-.64-3.46-4.06-6.56-7.94-9.25-11.58-.16-.19-.16-.42-.03-.61.1-.35.32-.45.67-.29,3.14.74,5.82,2.3,8.1,4.64h0Z"/>
      <path class="cls-2" d="M201.84,55.44c.19,0,.38.06.51.16,1.12.83,2.11,1.79,2.94,2.85.19.29.29.64.26.99-.03.61-.19,1.22-.42,1.79-.19.29-.45.42-.74.38l-.8-.1c-.42-.06-.7-.29-.93-.64-1.06-1.31-1.76-2.72-2.14-4.22-.03-.22-.03-.54.03-.93.22-.22.42-.32.64-.32l.64.03h.01ZM214.28,53.9c.13-.1.22-.26.32-.48.1-.13.22-.19.38-.26.32-.22.58-.16.7.1,1.06.54,1.98,1.18,2.82,1.89.38.38.48.77.29,1.25-.29.77-.51,1.22-.64,1.41-2.11,3.65-4.64,6.85-7.62,9.6-1.02.93-2.24,1.6-3.65,1.95-.51.03-.86-.13-1.09-.48l-.26-.48c-.1-.29-.1-.54.06-.83l.26-.45c.16-.42.42-.51.8-.29l.35.16c.19.03.35,0,.45-.13,2.59-3.46,4.51-7.04,5.79-10.85-1.12.22-2.08.77-2.94,1.66.1.1.13.26.13.48.16.19.16.38,0,.51,0,.22-.16.35-.48.45l-.77.32c-.35.03-.67-.06-.9-.26-.8-.9-1.47-1.86-2.02-2.82-.06-.35-.1-.61-.06-.77l.1-.61c.1-.32.35-.45.7-.45.42.03.8.13,1.22.42.32.29.51.48.61.58,1.6-.61,3.42-1.15,5.44-1.63h0Z"/>
      <path class="cls-2" d="M240.24,47.34c.22-.1.51-.19.8-.22.35-.13.7-.16,1.18-.13.48,0,.83.19,1.06.61.67,1.15,1.25,2.14,1.79,2.98.35.48.29.93-.16,1.34-1.15,1.02-2.05,1.82-2.72,2.5-.64.58-1.28,1.34-1.82,2.18-2.56,4.29-5.28,8.29-8.13,12-.64.83-1.44,1.57-2.43,2.08-1.09.48-2.4,1.09-3.94,1.73-.13.03-.29.06-.48.13-.22.06-.35.1-.45.13-.19.03-.54.03-1.02.03-.16,0-.29-.06-.38-.19-.13-.1-.19-.26-.19-.48,0-.45.06-.9.22-1.31.13-.45.42-.67.86-.64.1.03.26.03.42.06s.22.03.26.03c1.28-1.09,2.43-2.37,3.42-3.84,3.07-4.42,5.79-8.9,8.16-13.47-1.79,1.09-3.62,2.43-5.41,4.1-.48.45-1.34,1.18-2.5,2.14-.29.22-.61.32-1.02.32-.42-.03-.83-.16-1.22-.32-.74-1.09-1.25-2.14-1.6-3.23-.1-.29-.1-.54.03-.77.06-.16.16-.42.32-.74s.26-.54.32-.7c.22-.29.45-.48.7-.64.38-.16.67-.32.96-.54,1.6-1.28,2.98-2.78,4.16-4.51.42-.58.7-1.31.86-2.08.06-.19.19-.35.38-.45.22-.1.42-.03.58.19.58.7,1.06,1.41,1.38,2.14.19.45.26.9.19,1.38-.13.45-.16.61-.1.51,1.15-.54,2.98-1.34,5.5-2.3l.02-.02h0Z"/>
    </g>
  </g>
</svg>